<?xml version="1.0" encoding="UTF-8"?><!DOCTYPE svg PUBLIC "-//W3C//DTD SVG 1.1//EN" "http://www.w3.org/Graphics/SVG/1.1/DTD/svg11.dtd"><svg xmlns="http://www.w3.org/2000/svg"><symbol id="icon_check" viewBox="0 0 253 272"><title>Path 2</title><path d="M22.04 128.934L0 150.974l107.36 120.135L252.567 25.801 207.095 0 97.099 195.504l-69.716-72.111z" fill-rule="evenodd"/></symbol><symbol id="icon_cross" viewBox="0 0 36 36"><title>Path 3</title><path fill="#fff" d="M4.74-.027L.635 3.946 13.693 17.94.816 31.195l3.798 4.613L18.067 22.06l13.432 13.5 4.24-4.37-13.571-13.584 13.13-13.295L31.244.718l-13.19 13.378z" fill-rule="evenodd"/></symbol><symbol id="icon_cross_blue" viewBox="0 0 36 36"><title>Path 3</title><path fill="#8CCED5" d="M4.74-.027L.635 3.946 13.693 17.94.816 31.195l3.798 4.613L18.067 22.06l13.432 13.5 4.24-4.37-13.571-13.584 13.13-13.295L31.244.718l-13.19 13.378z" fill-rule="evenodd"/></symbol><symbol id="icon_cross_green" viewBox="0 0 36 36"><title>Path 3</title><path fill="#A5D0A7" d="M4.74-.027L.635 3.946 13.693 17.94.816 31.195l3.798 4.613L18.067 22.06l13.432 13.5 4.24-4.37-13.571-13.584 13.13-13.295L31.244.718l-13.19 13.378z" fill-rule="evenodd"/></symbol><symbol id="icon_cross_purple" viewBox="0 0 36 36"><title>Path 3</title><path fill="#BDB9D7" d="M4.74-.027L.635 3.946 13.693 17.94.816 31.195l3.798 4.613L18.067 22.06l13.432 13.5 4.24-4.37-13.571-13.584 13.13-13.295L31.244.718l-13.19 13.378z" fill-rule="evenodd"/></symbol></svg>